<?xml version="1.0" encoding="UTF-8"?>
<!DOCTYPE svg PUBLIC "-//W3C//DTD SVG 1.1//EN" "http://www.w3.org/Graphics/SVG/1.1/DTD/svg11.dtd">
<svg version="1.2" width="127mm" height="127mm" viewBox="0 0 12700 12700" preserveAspectRatio="xMidYMid" fill-rule="evenodd" stroke-width="28.222" stroke-linejoin="round" xmlns="http://www.w3.org/2000/svg" xmlns:ooo="http://xml.openoffice.org/svg/export" xmlns:xlink="http://www.w3.org/1999/xlink" xmlns:presentation="http://sun.com/xmlns/staroffice/presentation" xmlns:smil="http://www.w3.org/2001/SMIL20/" xmlns:anim="urn:oasis:names:tc:opendocument:xmlns:animation:1.0" xml:space="preserve">
 <defs class="ClipPathGroup">
  <clipPath id="presentation_clip_path" clipPathUnits="userSpaceOnUse">
   <rect x="0" y="0" width="12700" height="12700"/>
  </clipPath>
  <clipPath id="presentation_clip_path_shrink" clipPathUnits="userSpaceOnUse">
   <rect x="12" y="12" width="12675" height="12675"/>
  </clipPath>
 </defs>
 <defs class="TextShapeIndex">
  <g ooo:slide="id1" ooo:id-list="id3 id4 id5 id6 id7 id8 id9 id10 id11 id12 id13 id14 id15 id16 id17 id18 id19 id20 id21 id22 id23 id24 id25 id26 id27 id28 id29 id30 id31 id32 id33 id34 id35 id36 id37 id38 id39"/>
 </defs>
 <defs class="EmbeddedBulletChars">
  <g id="bullet-char-template-57356" transform="scale(0.00048828125,-0.00048828125)">
   <path d="M 580,1141 L 1163,571 580,0 -4,571 580,1141 Z"/>
  </g>
  <g id="bullet-char-template-57354" transform="scale(0.00048828125,-0.00048828125)">
   <path d="M 8,1128 L 1137,1128 1137,0 8,0 8,1128 Z"/>
  </g>
  <g id="bullet-char-template-10146" transform="scale(0.00048828125,-0.00048828125)">
   <path d="M 174,0 L 602,739 174,1481 1456,739 174,0 Z M 1358,739 L 309,1346 659,739 1358,739 Z"/>
  </g>
  <g id="bullet-char-template-10132" transform="scale(0.00048828125,-0.00048828125)">
   <path d="M 2015,739 L 1276,0 717,0 1260,543 174,543 174,936 1260,936 717,1481 1274,1481 2015,739 Z"/>
  </g>
  <g id="bullet-char-template-10007" transform="scale(0.00048828125,-0.00048828125)">
   <path d="M 0,-2 C -7,14 -16,27 -25,37 L 356,567 C 262,823 215,952 215,954 215,979 228,992 255,992 264,992 276,990 289,987 310,991 331,999 354,1012 L 381,999 492,748 772,1049 836,1024 860,1049 C 881,1039 901,1025 922,1006 886,937 835,863 770,784 769,783 710,716 594,584 L 774,223 C 774,196 753,168 711,139 L 727,119 C 717,90 699,76 672,76 641,76 570,178 457,381 L 164,-76 C 142,-110 111,-127 72,-127 30,-127 9,-110 8,-76 1,-67 -2,-52 -2,-32 -2,-23 -1,-13 0,-2 Z"/>
  </g>
  <g id="bullet-char-template-10004" transform="scale(0.00048828125,-0.00048828125)">
   <path d="M 285,-33 C 182,-33 111,30 74,156 52,228 41,333 41,471 41,549 55,616 82,672 116,743 169,778 240,778 293,778 328,747 346,684 L 369,508 C 377,444 397,411 428,410 L 1163,1116 C 1174,1127 1196,1133 1229,1133 1271,1133 1292,1118 1292,1087 L 1292,965 C 1292,929 1282,901 1262,881 L 442,47 C 390,-6 338,-33 285,-33 Z"/>
  </g>
  <g id="bullet-char-template-9679" transform="scale(0.00048828125,-0.00048828125)">
   <path d="M 813,0 C 632,0 489,54 383,161 276,268 223,411 223,592 223,773 276,916 383,1023 489,1130 632,1184 813,1184 992,1184 1136,1130 1245,1023 1353,916 1407,772 1407,592 1407,412 1353,268 1245,161 1136,54 992,0 813,0 Z"/>
  </g>
  <g id="bullet-char-template-8226" transform="scale(0.00048828125,-0.00048828125)">
   <path d="M 346,457 C 273,457 209,483 155,535 101,586 74,649 74,723 74,796 101,859 155,911 209,963 273,989 346,989 419,989 480,963 531,910 582,859 608,796 608,723 608,648 583,586 532,535 482,483 420,457 346,457 Z"/>
  </g>
  <g id="bullet-char-template-8211" transform="scale(0.00048828125,-0.00048828125)">
   <path d="M -4,459 L 1135,459 1135,606 -4,606 -4,459 Z"/>
  </g>
  <g id="bullet-char-template-61548" transform="scale(0.00048828125,-0.00048828125)">
   <path d="M 173,740 C 173,903 231,1043 346,1159 462,1274 601,1332 765,1332 928,1332 1067,1274 1183,1159 1299,1043 1357,903 1357,740 1357,577 1299,437 1183,322 1067,206 928,148 765,148 601,148 462,206 346,322 231,437 173,577 173,740 Z"/>
  </g>
 </defs>
 <g>
  <g id="id2" class="Master_Slide">
   <g id="bg-id2" class="Background"/>
   <g id="bo-id2" class="BackgroundObjects"/>
  </g>
 </g>
 <g class="SlideGroup">
  <g>
   <g id="container-id1">
    <g id="id1" class="Slide" clip-path="url(#presentation_clip_path)">
     <g class="Page">
      <g class="com.sun.star.drawing.CustomShape">
       <g id="id3">
        <rect class="BoundingBox" stroke="none" fill="none" x="2649" y="2655" width="7359" height="7360"/>
        <path fill="rgb(128,128,128)" stroke="none" d="M 6328,4512 L 8149,6334 6328,8156 4506,6334 6328,4512 Z"/>
        <path fill="rgb(153,153,153)" stroke="none" d="M 6328,2655 L 10007,6334 8149,6334 6328,4512 6328,2655 Z"/>
        <path fill="rgb(51,51,51)" stroke="none" d="M 10007,6334 L 6328,10014 6328,8156 8149,6334 10007,6334 Z"/>
        <path fill="rgb(90,90,90)" stroke="none" d="M 6328,10014 L 2649,6334 4506,6334 6328,8156 6328,10014 Z"/>
        <path fill="rgb(179,179,179)" stroke="none" d="M 2649,6334 L 4506,6334 6328,4512 6328,2655 2649,6334 Z"/>
       </g>
      </g>
      <g class="com.sun.star.drawing.CustomShape">
       <g id="id4">
        <rect class="BoundingBox" stroke="none" fill="none" x="4323" y="8944" width="4000" height="3050"/>
        <path fill="rgb(255,0,0)" stroke="none" d="M 8321,11993 L 8322,11845 8317,11697 8307,11549 8293,11403 8273,11258 8249,11114 8220,10972 8186,10833 8147,10696 8104,10563 8056,10432 8005,10306 7948,10183 7888,10065 7824,9951 7756,9842 7685,9739 7610,9641 7532,9548 7451,9461 7367,9381 7281,9307 7192,9239 7101,9178 7008,9124 6913,9076 6817,9036 6720,9003 6622,8977 6522,8959 6423,8948 6323,8944 6223,8948 6124,8959 6024,8977 5926,9003 5829,9036 5733,9076 5638,9124 5545,9178 5454,9239 5365,9307 5279,9381 5195,9461 5114,9548 5036,9640 4961,9739 4890,9842 4822,9951 4758,10065 4698,10183 4641,10306 4590,10432 4542,10562 4499,10696 4460,10833 4426,10972 4397,11114 4373,11257 4353,11403 4339,11549 4329,11697 4324,11845 4325,11993 5108,11960 5108,11870 5111,11780 5117,11690 5126,11601 5138,11513 5152,11426 5170,11340 5191,11255 5214,11172 5240,11091 5269,11011 5301,10935 5335,10860 5371,10788 5410,10719 5452,10653 5495,10590 5540,10530 5588,10474 5637,10421 5688,10372 5740,10327 5794,10286 5849,10249 5906,10216 5963,10187 6022,10163 6081,10143 6141,10127 6201,10116 6261,10109 6322,10107 6383,10109 6443,10116 6503,10127 6563,10143 6622,10163 6681,10187 6738,10216 6794,10249 6850,10286 6904,10327 6956,10372 7007,10421 7056,10474 7104,10530 7149,10590 7192,10653 7234,10719 7273,10788 7309,10860 7343,10935 7375,11011 7404,11091 7430,11172 7453,11255 7474,11340 7492,11426 7506,11513 7518,11601 7527,11690 7533,11780 7536,11870 7536,11960 8321,11993 Z"/>
       </g>
      </g>
      <g class="com.sun.star.drawing.CustomShape">
       <g id="id5">
        <rect class="BoundingBox" stroke="none" fill="none" x="4260" y="11076" width="965" height="1031"/>
        <path fill="rgb(153,153,153)" stroke="none" d="M 4679,12048 L 4261,11990 4386,11076 5223,11191 5098,12105 4679,12048 Z"/>
       </g>
      </g>
      <g class="com.sun.star.drawing.CustomShape">
       <g id="id6">
        <rect class="BoundingBox" stroke="none" fill="none" x="7421" y="11114" width="958" height="1031"/>
        <path fill="rgb(153,153,153)" stroke="none" d="M 7962,12086 L 7546,12143 7421,11229 8252,11115 8378,12029 7962,12086 Z"/>
       </g>
      </g>
      <g class="com.sun.star.drawing.CustomShape">
       <g id="id7">
        <rect class="BoundingBox" stroke="none" fill="none" x="4325" y="754" width="3999" height="3052"/>
        <path fill="rgb(255,0,0)" stroke="none" d="M 8322,755 L 8323,903 8318,1051 8308,1199 8294,1345 8274,1491 8250,1634 8220,1776 8186,1915 8148,2052 8105,2186 8057,2316 8005,2442 7949,2565 7889,2683 7825,2797 7757,2906 7686,3009 7611,3108 7533,3200 7452,3287 7368,3367 7282,3441 7193,3509 7102,3570 7009,3624 6914,3672 6818,3712 6721,3745 6623,3771 6523,3789 6424,3800 6324,3804 6224,3800 6125,3789 6026,3771 5927,3745 5830,3712 5734,3672 5639,3624 5546,3570 5455,3509 5366,3441 5280,3367 5196,3287 5115,3200 5037,3108 4962,3009 4891,2906 4823,2797 4759,2683 4699,2565 4643,2442 4591,2316 4543,2186 4500,2052 4462,1915 4428,1776 4398,1634 4374,1491 4354,1345 4340,1199 4330,1051 4325,903 4326,755 5109,788 5109,878 5112,968 5118,1057 5127,1146 5139,1235 5153,1322 5171,1408 5192,1493 5215,1576 5241,1657 5270,1736 5302,1813 5336,1887 5372,1959 5411,2028 5452,2094 5496,2157 5541,2217 5589,2273 5638,2326 5689,2375 5741,2420 5795,2461 5850,2498 5907,2531 5964,2560 6023,2584 6082,2604 6142,2620 6202,2631 6262,2638 6323,2640 6384,2638 6444,2631 6504,2620 6564,2604 6623,2584 6682,2560 6739,2531 6796,2498 6851,2461 6905,2420 6957,2375 7008,2326 7057,2273 7105,2217 7150,2157 7193,2094 7235,2028 7274,1959 7310,1887 7344,1813 7376,1736 7405,1657 7431,1576 7454,1493 7475,1408 7493,1322 7507,1235 7519,1146 7528,1057 7534,968 7537,878 7537,788 8322,755 Z"/>
       </g>
      </g>
      <g class="com.sun.star.drawing.CustomShape">
       <g id="id8">
        <rect class="BoundingBox" stroke="none" fill="none" x="4260" y="638" width="964" height="1033"/>
        <path fill="rgb(153,153,153)" stroke="none" d="M 4679,696 L 5097,639 5223,1555 4386,1670 4260,754 4679,696 Z"/>
       </g>
      </g>
      <g class="com.sun.star.drawing.CustomShape">
       <g id="id9">
        <rect class="BoundingBox" stroke="none" fill="none" x="7421" y="603" width="958" height="1030"/>
        <path fill="rgb(153,153,153)" stroke="none" d="M 7962,661 L 8378,718 8252,1632 7422,1518 7547,604 7962,661 Z"/>
       </g>
      </g>
      <g class="com.sun.star.drawing.CustomShape">
       <g id="id10">
        <rect class="BoundingBox" stroke="none" fill="none" x="8943" y="4304" width="3051" height="4000"/>
        <path fill="rgb(255,0,0)" stroke="none" d="M 11993,8302 L 11845,8303 11697,8298 11549,8288 11403,8274 11257,8254 11114,8230 10972,8200 10833,8166 10696,8128 10562,8085 10432,8037 10306,7985 10183,7929 10065,7869 9951,7805 9842,7737 9739,7666 9640,7591 9548,7513 9461,7432 9381,7348 9307,7262 9239,7173 9178,7082 9124,6989 9076,6894 9036,6798 9003,6701 8977,6603 8959,6503 8948,6404 8944,6304 8948,6204 8959,6105 8977,6006 9003,5907 9036,5810 9076,5714 9124,5619 9178,5526 9239,5435 9307,5346 9381,5260 9461,5176 9548,5095 9640,5017 9739,4942 9842,4871 9951,4803 10065,4739 10183,4679 10306,4623 10432,4571 10562,4523 10696,4480 10833,4442 10972,4408 11114,4378 11257,4354 11403,4334 11549,4320 11697,4310 11845,4305 11993,4306 11960,5089 11870,5089 11780,5092 11691,5098 11602,5107 11513,5119 11426,5133 11340,5151 11255,5172 11172,5195 11091,5221 11012,5250 10935,5282 10861,5316 10789,5352 10720,5391 10654,5432 10591,5476 10531,5521 10475,5569 10422,5618 10373,5669 10328,5721 10287,5775 10250,5830 10217,5887 10188,5944 10164,6003 10144,6062 10128,6122 10117,6182 10110,6242 10108,6303 10110,6364 10117,6424 10128,6484 10144,6544 10164,6603 10188,6662 10217,6719 10250,6776 10287,6831 10328,6885 10373,6937 10422,6988 10475,7037 10531,7085 10591,7130 10654,7173 10720,7215 10789,7254 10861,7290 10935,7324 11012,7356 11091,7385 11172,7411 11255,7434 11340,7455 11426,7473 11513,7487 11602,7499 11691,7508 11780,7514 11870,7517 11960,7517 11993,8302 Z"/>
       </g>
      </g>
      <g class="com.sun.star.drawing.CustomShape">
       <g id="id11">
        <rect class="BoundingBox" stroke="none" fill="none" x="11078" y="4242" width="1032" height="962"/>
        <path fill="rgb(153,153,153)" stroke="none" d="M 12052,4660 L 12109,5078 11192,5203 11078,4368 11995,4243 12052,4660 Z"/>
       </g>
      </g>
      <g class="com.sun.star.drawing.CustomShape">
       <g id="id12">
        <rect class="BoundingBox" stroke="none" fill="none" x="11117" y="7402" width="1030" height="956"/>
        <path fill="rgb(153,153,153)" stroke="none" d="M 12089,7941 L 12032,8356 11117,8234 11231,7403 12146,7525 12089,7941 Z"/>
       </g>
      </g>
      <g class="com.sun.star.drawing.CustomShape">
       <g id="id13">
        <rect class="BoundingBox" stroke="none" fill="none" x="721" y="4323" width="3051" height="3999"/>
        <path fill="rgb(255,0,0)" stroke="none" d="M 722,8320 L 870,8321 1018,8316 1166,8306 1312,8292 1458,8272 1601,8248 1743,8218 1882,8184 2019,8146 2153,8103 2283,8055 2409,8003 2532,7947 2650,7887 2764,7823 2873,7755 2976,7684 3075,7609 3167,7531 3254,7450 3334,7366 3408,7280 3476,7191 3537,7100 3591,7007 3639,6912 3679,6816 3712,6719 3738,6621 3756,6521 3767,6422 3771,6322 3767,6222 3756,6123 3738,6024 3712,5925 3679,5828 3639,5732 3591,5637 3537,5544 3476,5453 3408,5364 3334,5278 3254,5194 3167,5113 3075,5035 2976,4960 2873,4889 2764,4821 2650,4757 2532,4697 2409,4641 2283,4589 2153,4541 2019,4498 1882,4460 1743,4426 1601,4396 1458,4372 1312,4352 1166,4338 1018,4328 870,4323 722,4324 755,5107 845,5107 935,5110 1024,5116 1113,5125 1202,5137 1289,5151 1375,5169 1460,5190 1543,5213 1624,5239 1703,5268 1780,5300 1854,5334 1926,5370 1995,5409 2061,5450 2124,5494 2184,5539 2240,5587 2293,5636 2342,5687 2387,5739 2428,5793 2465,5848 2498,5905 2527,5962 2551,6021 2571,6080 2587,6140 2598,6200 2605,6260 2607,6321 2605,6382 2598,6442 2587,6502 2571,6562 2551,6621 2527,6680 2498,6737 2465,6794 2428,6849 2387,6903 2342,6955 2293,7006 2240,7055 2184,7103 2124,7148 2061,7191 1995,7233 1926,7272 1854,7308 1780,7342 1703,7374 1624,7403 1543,7429 1460,7452 1375,7473 1289,7491 1202,7505 1113,7517 1024,7526 935,7532 845,7535 755,7535 722,8320 Z"/>
       </g>
      </g>
      <g class="com.sun.star.drawing.CustomShape">
       <g id="id14">
        <rect class="BoundingBox" stroke="none" fill="none" x="607" y="4260" width="1031" height="964"/>
        <path fill="rgb(153,153,153)" stroke="none" d="M 665,4678 L 723,4260 1637,4386 1522,5222 608,5096 665,4678 Z"/>
       </g>
      </g>
      <g class="com.sun.star.drawing.CustomShape">
       <g id="id15">
        <rect class="BoundingBox" stroke="none" fill="none" x="570" y="7421" width="1031" height="956"/>
        <path fill="rgb(153,153,153)" stroke="none" d="M 627,7960 L 570,7545 1485,7421 1599,8252 684,8376 627,7960 Z"/>
       </g>
      </g>
      <g class="com.sun.star.drawing.CustomShape">
       <g id="id16">
        <rect class="BoundingBox" stroke="none" fill="none" x="4328" y="4425" width="1956" height="3089"/>
        <path fill="rgb(255,233,148)" stroke="none" d="M 5306,7513 L 4328,7513 4328,4425 6283,4425 6283,7513 5306,7513 Z"/>
       </g>
      </g>
      <g class="com.sun.star.drawing.CustomShape">
       <g id="id17">
        <rect class="BoundingBox" stroke="none" fill="none" x="4302" y="4706" width="2023" height="190"/>
        <path fill="rgb(17,17,17)" stroke="none" d="M 5313,4895 L 4302,4895 4302,4706 6324,4706 6324,4895 5313,4895 Z"/>
       </g>
      </g>
      <g class="com.sun.star.drawing.CustomShape">
       <g id="id18">
        <rect class="BoundingBox" stroke="none" fill="none" x="4295" y="7077" width="2023" height="190"/>
        <path fill="rgb(17,17,17)" stroke="none" d="M 5306,7266 L 4295,7266 4295,7077 6317,7077 6317,7266 5306,7266 Z"/>
       </g>
      </g>
      <g class="com.sun.star.drawing.CustomShape">
       <g id="id19">
        <rect class="BoundingBox" stroke="none" fill="none" x="4288" y="5854" width="2023" height="190"/>
        <path fill="rgb(17,17,17)" stroke="none" d="M 5299,6043 L 4288,6043 4288,5854 6310,5854 6310,6043 5299,6043 Z"/>
       </g>
      </g>
      <g class="com.sun.star.drawing.CustomShape">
       <g id="id20">
        <rect class="BoundingBox" stroke="none" fill="none" x="6573" y="5273" width="1956" height="3089"/>
        <path fill="rgb(255,233,148)" stroke="none" d="M 7551,8361 L 6573,8361 6573,5273 8528,5273 8528,8361 7551,8361 Z"/>
       </g>
      </g>
      <g class="com.sun.star.drawing.CustomShape">
       <g id="id21">
        <rect class="BoundingBox" stroke="none" fill="none" x="6547" y="5554" width="2023" height="190"/>
        <path fill="rgb(17,17,17)" stroke="none" d="M 7558,5743 L 6547,5743 6547,5554 8569,5554 8569,5743 7558,5743 Z"/>
       </g>
      </g>
      <g class="com.sun.star.drawing.CustomShape">
       <g id="id22">
        <rect class="BoundingBox" stroke="none" fill="none" x="6540" y="7925" width="2023" height="190"/>
        <path fill="rgb(17,17,17)" stroke="none" d="M 7551,8114 L 6540,8114 6540,7925 8562,7925 8562,8114 7551,8114 Z"/>
       </g>
      </g>
      <g class="com.sun.star.drawing.CustomShape">
       <g id="id23">
        <rect class="BoundingBox" stroke="none" fill="none" x="6533" y="6702" width="2023" height="190"/>
        <path fill="rgb(17,17,17)" stroke="none" d="M 7544,6891 L 6533,6891 6533,6702 8555,6702 8555,6891 7544,6891 Z"/>
       </g>
      </g>
      <g class="com.sun.star.drawing.OpenFreeHandShape">
       <g id="id24">
        <rect class="BoundingBox" stroke="none" fill="none" x="3980" y="4027" width="2126" height="4807"/>
        <path fill="none" stroke="rgb(255,0,0)" stroke-width="53" stroke-linejoin="round" d="M 5300,4453 C 5184,4404 5137,4292 5035,4219 4903,4124 4759,4091 4612,4060 4524,4042 4419,4066 4362,4136 4300,4212 4255,4306 4241,4408 4229,4500 4215,4593 4203,4687 4192,4776 4178,4862 4166,4952 4154,5046 4108,5137 4090,5232 4074,5320 4083,5411 4113,5504 4139,5586 4103,5680 4067,5761 4033,5838 4034,5926 4030,6010 4025,6123 4034,6239 4067,6350 4101,6465 4122,6588 4098,6713 4079,6813 4006,6891 4007,6993 4007,7093 4011,7194 4014,7295 4018,7399 3997,7513 4045,7605 4102,7714 4232,7781 4355,7802 4485,7825 4535,7997 4665,7983 4813,7967 4754,8132 4740,8195 4721,8282 4699,8372 4657,8452 4608,8546 4636,8673 4702,8739 4794,8831 4953,8789 5080,8800 5174,8809 5272,8809 5368,8792 5477,8773 5587,8751 5700,8754 5791,8756 5880,8722 5965,8686 L 6071,8649 6078,8649"/>
       </g>
      </g>
      <g class="com.sun.star.drawing.OpenFreeHandShape">
       <g id="id25">
        <rect class="BoundingBox" stroke="none" fill="none" x="5318" y="4143" width="2376" height="1215"/>
        <path fill="none" stroke="rgb(255,0,0)" stroke-width="53" stroke-linejoin="round" d="M 5345,4445 C 5493,4411 5481,4227 5625,4188 5744,4156 5871,4168 5987,4219 6085,4262 6193,4314 6305,4309 6415,4305 6532,4284 6638,4324 6769,4373 6902,4428 7023,4506 7108,4561 7195,4628 7227,4733 7262,4847 7391,4839 7484,4861 7574,4882 7634,4965 7635,5073 7636,5169 7608,5248 7666,5330 L 7666,5330"/>
       </g>
      </g>
      <g class="com.sun.star.drawing.OpenFreeHandShape">
       <g id="id26">
        <rect class="BoundingBox" stroke="none" fill="none" x="5303" y="3959" width="2642" height="1422"/>
        <path fill="none" stroke="rgb(255,0,0)" stroke-width="53" stroke-linejoin="round" d="M 5330,4430 C 5348,4332 5344,4232 5368,4136 5401,4008 5557,4012 5655,3992 5751,3972 5851,4010 5950,4007 6072,4004 6197,3985 6320,3999 6415,4010 6505,4021 6600,4052 6705,4086 6818,4101 6932,4098 7053,4094 7175,4106 7295,4128 7400,4147 7488,4209 7560,4309 7623,4396 7689,4475 7726,4574 7760,4666 7809,4753 7847,4846 7880,4927 7927,5010 7915,5096 7900,5199 7811,5277 7734,5345 L 7711,5353"/>
       </g>
      </g>
      <g class="com.sun.star.drawing.OpenFreeHandShape">
       <g id="id27">
        <rect class="BoundingBox" stroke="none" fill="none" x="3770" y="3916" width="2344" height="4768"/>
        <path fill="none" stroke="rgb(255,64,0)" stroke-width="53" stroke-linejoin="round" d="M 5360,4453 C 5298,4349 5268,4231 5209,4128 5160,4041 5064,3991 4974,3954 4842,3899 4782,4062 4740,4143 4695,4229 4699,4339 4733,4430 4777,4548 4830,4669 4823,4801 4815,4967 4712,5089 4619,5209 4546,5302 4552,5417 4513,5519 4465,5645 4428,5777 4347,5889 4264,6002 4193,6134 4181,6275 4169,6415 4056,6500 3984,6600 3924,6684 3867,6774 3833,6872 3798,6973 3791,7087 3803,7197 3817,7319 3864,7435 3939,7530 4007,7617 4151,7691 4060,7847 4008,7937 3973,8053 4045,8157 4125,8272 4234,8368 4355,8444 4452,8505 4566,8508 4672,8535 4787,8564 4910,8556 5027,8543 5138,8530 5247,8536 5360,8520 5461,8506 5567,8522 5670,8520 5781,8517 5889,8551 5987,8603 L 6063,8633 6086,8656"/>
       </g>
      </g>
      <g class="com.sun.star.drawing.OpenFreeHandShape">
       <g id="id28">
        <rect class="BoundingBox" stroke="none" fill="none" x="3665" y="5914" width="2871" height="2785"/>
        <path fill="none" stroke="rgb(0,0,255)" stroke-width="53" stroke-linejoin="round" d="M 3692,5941 C 3856,5990 4057,6000 4174,6145 4265,6259 4256,6412 4318,6542 4405,6724 4609,6706 4763,6759 4936,6818 5105,6898 5256,6999 5413,7104 5538,7254 5677,7384 5823,7520 5932,7691 6026,7865 6117,8034 6115,8255 6314,8358 6401,8403 6658,8620 6386,8671 L 6266,8671 6146,8671 6146,8647"/>
       </g>
      </g>
      <g class="com.sun.star.drawing.OpenFreeHandShape">
       <g id="id29">
        <rect class="BoundingBox" stroke="none" fill="none" x="6131" y="8668" width="1958" height="498"/>
        <path fill="none" stroke="rgb(0,0,255)" stroke-width="53" stroke-linejoin="round" d="M 6422,8996 C 6554,9017 6687,9018 6819,9056 6965,9098 7124,9057 7276,9068 7423,9079 7562,8975 7709,9104 7824,9205 8133,9065 8046,8899 7983,8779 7823,8695 7673,8731 7531,8765 7385,8739 7240,8767 7098,8795 6949,8855 6807,8815 6676,8778 6545,8735 6410,8731 L 6290,8731 6170,8695 6158,8695"/>
       </g>
      </g>
      <g class="com.sun.star.drawing.OpenFreeHandShape">
       <g id="id30">
        <rect class="BoundingBox" stroke="none" fill="none" x="6155" y="3725" width="2633" height="4986"/>
        <path fill="none" stroke="rgb(0,0,255)" stroke-width="53" stroke-linejoin="round" d="M 6182,3752 C 6306,3843 6432,3934 6555,4029 6693,4136 6884,4104 7048,4101 7209,4099 7355,4175 7505,4221 7707,4283 7702,4499 7842,4618 7973,4729 8156,4827 8190,5015 8217,5161 8287,5293 8335,5436 8387,5590 8249,5688 8202,5808 8143,5961 8232,6101 8275,6241 8323,6397 8438,6534 8467,6698 8494,6852 8545,7002 8587,7155 8627,7302 8738,7414 8732,7576 8727,7703 8787,7839 8744,7961 8691,8110 8470,8029 8347,8118 8199,8225 8027,8299 7854,8358 7729,8401 7602,8445 7469,8454 7292,8465 7116,8469 6940,8466 6790,8463 6663,8547 6531,8599 L 6386,8647 6266,8683 6266,8683"/>
       </g>
      </g>
      <g class="com.sun.star.drawing.OpenFreeHandShape">
       <g id="id31">
        <rect class="BoundingBox" stroke="none" fill="none" x="6251" y="6251" width="2725" height="2448"/>
        <path fill="none" stroke="rgb(0,0,255)" stroke-width="53" stroke-linejoin="round" d="M 8948,6278 C 8819,6349 8639,6164 8527,6434 8446,6628 8180,6688 8070,6867 7977,7017 7836,7113 7721,7240 7588,7386 7452,7536 7288,7649 7151,7743 6993,7815 6879,7937 6760,8064 6594,8089 6543,8262 6496,8419 6325,8485 6290,8647 L 6278,8671"/>
       </g>
      </g>
      <g class="com.sun.star.drawing.CustomShape">
       <g id="id32">
        <rect class="BoundingBox" stroke="none" fill="none" x="5754" y="5398" width="1531" height="1135"/>
        <path fill="rgb(178,178,178)" stroke="none" d="M 6061,5398 L 6975,5398 7283,5964 6975,6531 6061,6531 5754,5964 6061,5398 6061,5398 Z"/>
       </g>
      </g>
      <g class="com.sun.star.drawing.CustomShape">
       <g id="id33">
        <rect class="BoundingBox" stroke="none" fill="none" x="6045" y="5717" width="937" height="305"/>
        <path fill="rgb(34,75,18)" stroke="none" d="M 6513,6020 L 6046,6020 6046,5718 6980,5718 6980,6020 6513,6020 Z"/>
        <path fill="none" stroke="rgb(52,101,164)" d="M 6513,6020 L 6046,6020 6046,5718 6980,5718 6980,6020 6513,6020 Z"/>
       </g>
      </g>
      <g class="com.sun.star.drawing.CustomShape">
       <g id="id34">
        <rect class="BoundingBox" stroke="none" fill="none" x="6100" y="6109" width="80" height="80"/>
        <path fill="rgb(114,159,207)" stroke="none" d="M 6178,6149 C 6178,6155 6176,6162 6173,6168 6169,6174 6165,6178 6159,6182 6153,6185 6146,6187 6140,6187 6133,6187 6126,6185 6120,6182 6114,6178 6110,6174 6106,6168 6103,6162 6101,6155 6101,6149 6101,6142 6103,6135 6106,6129 6110,6123 6114,6119 6120,6115 6126,6112 6133,6110 6140,6110 6146,6110 6153,6112 6159,6115 6165,6119 6169,6123 6173,6129 6176,6135 6178,6142 6178,6149 L 6178,6149 Z"/>
        <path fill="none" stroke="rgb(52,101,164)" d="M 6178,6149 C 6178,6155 6176,6162 6173,6168 6169,6174 6165,6178 6159,6182 6153,6185 6146,6187 6140,6187 6133,6187 6126,6185 6120,6182 6114,6178 6110,6174 6106,6168 6103,6162 6101,6155 6101,6149 6101,6142 6103,6135 6106,6129 6110,6123 6114,6119 6120,6115 6126,6112 6133,6110 6140,6110 6146,6110 6153,6112 6159,6115 6165,6119 6169,6123 6173,6129 6176,6135 6178,6142 6178,6149 Z"/>
       </g>
      </g>
      <g class="com.sun.star.drawing.CustomShape">
       <g id="id35">
        <rect class="BoundingBox" stroke="none" fill="none" x="6295" y="6109" width="80" height="80"/>
        <path fill="rgb(114,159,207)" stroke="none" d="M 6373,6149 C 6373,6155 6371,6162 6368,6168 6364,6174 6360,6178 6354,6182 6348,6185 6341,6187 6335,6187 6328,6187 6321,6185 6315,6182 6309,6178 6305,6174 6301,6168 6298,6162 6296,6155 6296,6149 6296,6142 6298,6135 6301,6129 6305,6123 6309,6119 6315,6115 6321,6112 6328,6110 6335,6110 6341,6110 6348,6112 6354,6115 6360,6119 6364,6123 6368,6129 6371,6135 6373,6142 6373,6149 L 6373,6149 Z"/>
        <path fill="none" stroke="rgb(52,101,164)" d="M 6373,6149 C 6373,6155 6371,6162 6368,6168 6364,6174 6360,6178 6354,6182 6348,6185 6341,6187 6335,6187 6328,6187 6321,6185 6315,6182 6309,6178 6305,6174 6301,6168 6298,6162 6296,6155 6296,6149 6296,6142 6298,6135 6301,6129 6305,6123 6309,6119 6315,6115 6321,6112 6328,6110 6335,6110 6341,6110 6348,6112 6354,6115 6360,6119 6364,6123 6368,6129 6371,6135 6373,6142 6373,6149 Z"/>
       </g>
      </g>
      <g class="com.sun.star.drawing.CustomShape">
       <g id="id36">
        <rect class="BoundingBox" stroke="none" fill="none" x="6844" y="6109" width="80" height="80"/>
        <path fill="rgb(114,159,207)" stroke="none" d="M 6922,6149 C 6922,6155 6920,6162 6917,6168 6913,6174 6909,6178 6903,6182 6897,6185 6890,6187 6884,6187 6877,6187 6870,6185 6864,6182 6858,6178 6854,6174 6850,6168 6847,6162 6845,6155 6845,6149 6845,6142 6847,6135 6850,6129 6854,6123 6858,6119 6864,6115 6870,6112 6877,6110 6884,6110 6890,6110 6897,6112 6903,6115 6909,6119 6913,6123 6917,6129 6920,6135 6922,6142 6922,6149 L 6922,6149 Z"/>
        <path fill="none" stroke="rgb(52,101,164)" d="M 6922,6149 C 6922,6155 6920,6162 6917,6168 6913,6174 6909,6178 6903,6182 6897,6185 6890,6187 6884,6187 6877,6187 6870,6185 6864,6182 6858,6178 6854,6174 6850,6168 6847,6162 6845,6155 6845,6149 6845,6142 6847,6135 6850,6129 6854,6123 6858,6119 6864,6115 6870,6112 6877,6110 6884,6110 6890,6110 6897,6112 6903,6115 6909,6119 6913,6123 6917,6129 6920,6135 6922,6142 6922,6149 Z"/>
       </g>
      </g>
      <g class="com.sun.star.drawing.CustomShape">
       <g id="id37">
        <rect class="BoundingBox" stroke="none" fill="none" x="6687" y="6109" width="80" height="80"/>
        <path fill="rgb(114,159,207)" stroke="none" d="M 6765,6149 C 6765,6155 6763,6162 6760,6168 6756,6174 6752,6178 6746,6182 6740,6185 6733,6187 6727,6187 6720,6187 6713,6185 6707,6182 6701,6178 6697,6174 6693,6168 6690,6162 6688,6155 6688,6149 6688,6142 6690,6135 6693,6129 6697,6123 6701,6119 6707,6115 6713,6112 6720,6110 6727,6110 6733,6110 6740,6112 6746,6115 6752,6119 6756,6123 6760,6129 6763,6135 6765,6142 6765,6149 L 6765,6149 Z"/>
        <path fill="none" stroke="rgb(52,101,164)" d="M 6765,6149 C 6765,6155 6763,6162 6760,6168 6756,6174 6752,6178 6746,6182 6740,6185 6733,6187 6727,6187 6720,6187 6713,6185 6707,6182 6701,6178 6697,6174 6693,6168 6690,6162 6688,6155 6688,6149 6688,6142 6690,6135 6693,6129 6697,6123 6701,6119 6707,6115 6713,6112 6720,6110 6727,6110 6733,6110 6740,6112 6746,6115 6752,6119 6756,6123 6760,6129 6763,6135 6765,6142 6765,6149 Z"/>
       </g>
      </g>
      <g class="com.sun.star.drawing.OpenFreeHandShape">
       <g id="id38">
        <rect class="BoundingBox" stroke="none" fill="none" x="5391" y="5308" width="1107" height="3434"/>
        <path fill="none" stroke="rgb(85,48,141)" stroke-width="53" stroke-linejoin="round" d="M 6470,5428 C 6345,5387 6218,5334 6086,5335 5959,5335 5839,5386 5727,5454 5617,5521 5590,5642 5599,5753 5606,5845 5621,5943 5599,6034 5569,6154 5586,6274 5574,6393 5563,6504 5603,6616 5582,6726 5562,6834 5540,6942 5514,7050 5485,7170 5405,7280 5420,7409 5435,7537 5536,7633 5599,7741 5662,7849 5766,7925 5830,8032 5890,8133 5920,8249 5949,8364 5978,8478 6032,8575 6077,8680 L 6103,8714"/>
       </g>
      </g>
      <g class="com.sun.star.drawing.OpenFreeHandShape">
       <g id="id39">
        <rect class="BoundingBox" stroke="none" fill="none" x="5486" y="5064" width="1055" height="3695"/>
        <path fill="none" stroke="rgb(85,48,141)" stroke-width="53" stroke-linejoin="round" d="M 6513,5428 C 6467,5324 6436,5199 6333,5138 6218,5070 6077,5096 5949,5096 5799,5096 5662,5182 5599,5326 5554,5430 5506,5538 5514,5650 5522,5757 5556,5861 5591,5966 5634,6098 5714,6215 5719,6359 5723,6472 5786,6563 5796,6683 5804,6780 5847,6873 5881,6965 5925,7083 5924,7204 5941,7323 5959,7456 5931,7592 5966,7724 6002,7858 6006,8000 6043,8134 6071,8235 6082,8341 6120,8441 L 6146,8535 6154,8655 6154,8731"/>
       </g>
      </g>
     </g>
    </g>
   </g>
  </g>
 </g>
</svg>