<?xml version="1.0" encoding="UTF-8"?>
<!DOCTYPE svg PUBLIC "-//W3C//DTD SVG 1.1//EN" "http://www.w3.org/Graphics/SVG/1.1/DTD/svg11.dtd">
<svg version="1.2" width="215.9mm" height="215.9mm" viewBox="0 0 21590 21590" preserveAspectRatio="xMidYMid" fill-rule="evenodd" stroke-width="28.222" stroke-linejoin="round" xmlns="http://www.w3.org/2000/svg" xmlns:ooo="http://xml.openoffice.org/svg/export" xmlns:xlink="http://www.w3.org/1999/xlink" xmlns:presentation="http://sun.com/xmlns/staroffice/presentation" xmlns:smil="http://www.w3.org/2001/SMIL20/" xmlns:anim="urn:oasis:names:tc:opendocument:xmlns:animation:1.0" xml:space="preserve">
 <defs class="ClipPathGroup">
  <clipPath id="presentation_clip_path" clipPathUnits="userSpaceOnUse">
   <rect x="0" y="0" width="21590" height="21590"/>
  </clipPath>
  <clipPath id="presentation_clip_path_shrink" clipPathUnits="userSpaceOnUse">
   <rect x="21" y="21" width="21547" height="21547"/>
  </clipPath>
 </defs>
 <defs class="TextShapeIndex">
  <g ooo:slide="id1" ooo:id-list="id3 id4 id5 id6 id7 id8 id9 id10 id11 id12 id13 id14 id15 id16 id17 id18 id19"/>
 </defs>
 <defs class="EmbeddedBulletChars">
  <g id="bullet-char-template-57356" transform="scale(0.00048828125,-0.00048828125)">
   <path d="M 580,1141 L 1163,571 580,0 -4,571 580,1141 Z"/>
  </g>
  <g id="bullet-char-template-57354" transform="scale(0.00048828125,-0.00048828125)">
   <path d="M 8,1128 L 1137,1128 1137,0 8,0 8,1128 Z"/>
  </g>
  <g id="bullet-char-template-10146" transform="scale(0.00048828125,-0.00048828125)">
   <path d="M 174,0 L 602,739 174,1481 1456,739 174,0 Z M 1358,739 L 309,1346 659,739 1358,739 Z"/>
  </g>
  <g id="bullet-char-template-10132" transform="scale(0.00048828125,-0.00048828125)">
   <path d="M 2015,739 L 1276,0 717,0 1260,543 174,543 174,936 1260,936 717,1481 1274,1481 2015,739 Z"/>
  </g>
  <g id="bullet-char-template-10007" transform="scale(0.00048828125,-0.00048828125)">
   <path d="M 0,-2 C -7,14 -16,27 -25,37 L 356,567 C 262,823 215,952 215,954 215,979 228,992 255,992 264,992 276,990 289,987 310,991 331,999 354,1012 L 381,999 492,748 772,1049 836,1024 860,1049 C 881,1039 901,1025 922,1006 886,937 835,863 770,784 769,783 710,716 594,584 L 774,223 C 774,196 753,168 711,139 L 727,119 C 717,90 699,76 672,76 641,76 570,178 457,381 L 164,-76 C 142,-110 111,-127 72,-127 30,-127 9,-110 8,-76 1,-67 -2,-52 -2,-32 -2,-23 -1,-13 0,-2 Z"/>
  </g>
  <g id="bullet-char-template-10004" transform="scale(0.00048828125,-0.00048828125)">
   <path d="M 285,-33 C 182,-33 111,30 74,156 52,228 41,333 41,471 41,549 55,616 82,672 116,743 169,778 240,778 293,778 328,747 346,684 L 369,508 C 377,444 397,411 428,410 L 1163,1116 C 1174,1127 1196,1133 1229,1133 1271,1133 1292,1118 1292,1087 L 1292,965 C 1292,929 1282,901 1262,881 L 442,47 C 390,-6 338,-33 285,-33 Z"/>
  </g>
  <g id="bullet-char-template-9679" transform="scale(0.00048828125,-0.00048828125)">
   <path d="M 813,0 C 632,0 489,54 383,161 276,268 223,411 223,592 223,773 276,916 383,1023 489,1130 632,1184 813,1184 992,1184 1136,1130 1245,1023 1353,916 1407,772 1407,592 1407,412 1353,268 1245,161 1136,54 992,0 813,0 Z"/>
  </g>
  <g id="bullet-char-template-8226" transform="scale(0.00048828125,-0.00048828125)">
   <path d="M 346,457 C 273,457 209,483 155,535 101,586 74,649 74,723 74,796 101,859 155,911 209,963 273,989 346,989 419,989 480,963 531,910 582,859 608,796 608,723 608,648 583,586 532,535 482,483 420,457 346,457 Z"/>
  </g>
  <g id="bullet-char-template-8211" transform="scale(0.00048828125,-0.00048828125)">
   <path d="M -4,459 L 1135,459 1135,606 -4,606 -4,459 Z"/>
  </g>
  <g id="bullet-char-template-61548" transform="scale(0.00048828125,-0.00048828125)">
   <path d="M 173,740 C 173,903 231,1043 346,1159 462,1274 601,1332 765,1332 928,1332 1067,1274 1183,1159 1299,1043 1357,903 1357,740 1357,577 1299,437 1183,322 1067,206 928,148 765,148 601,148 462,206 346,322 231,437 173,577 173,740 Z"/>
  </g>
 </defs>
 <g>
  <g id="id2" class="Master_Slide">
   <g id="bg-id2" class="Background"/>
   <g id="bo-id2" class="BackgroundObjects"/>
  </g>
 </g>
 <g class="SlideGroup">
  <g>
   <g id="container-id1">
    <g id="id1" class="Slide" clip-path="url(#presentation_clip_path)">
     <g class="Page">
      <g class="com.sun.star.drawing.CustomShape">
       <g id="id3">
        <rect class="BoundingBox" stroke="none" fill="none" x="34" y="73" width="21508" height="21500"/>
        <path fill="rgb(46,40,35)" stroke="none" d="M 21541,10823 C 21541,12709 21044,14563 20100,16197 19157,17831 17799,19188 16165,20132 14530,21075 12676,21572 10788,21572 8900,21572 7046,21075 5412,20132 3777,19188 2419,17831 1476,16197 532,14563 35,12709 35,10823 35,8936 532,7082 1476,5448 2419,3814 3777,2457 5411,1513 7046,570 8900,73 10788,73 12676,73 14530,570 16164,1513 17799,2457 19157,3814 20100,5448 21044,7082 21541,8936 21541,10822 L 21541,10823 Z"/>
       </g>
      </g>
      <g class="com.sun.star.drawing.CustomShape">
       <g id="id4">
        <rect class="BoundingBox" stroke="none" fill="none" x="3657" y="728" width="17867" height="20790"/>
        <path fill="rgb(83,68,55)" stroke="none" d="M 21523,11123 C 21523,12947 21110,14740 20326,16320 19542,17900 18414,19212 17057,20124 15699,21037 14158,21517 12590,21517 11022,21517 9481,21037 8124,20124 6766,19212 5638,17900 4854,16320 4070,14740 3657,12947 3657,11123 3657,9298 4070,7505 4854,5925 5638,4345 6766,3033 8123,2121 9481,1208 11022,728 12590,728 14158,728 15699,1208 17056,2121 18414,3033 19542,4345 20326,5925 21110,7505 21523,9298 21523,11122 L 21523,11123 Z"/>
       </g>
      </g>
      <g class="com.sun.star.drawing.CustomShape">
       <g id="id5">
        <rect class="BoundingBox" stroke="none" fill="none" x="6196" y="18680" width="10107" height="2857"/>
        <path fill="rgb(23,19,15)" stroke="none" d="M 16302,20108 C 16302,20359 16069,20605 15625,20822 15182,21039 14544,21219 13776,21345 13008,21470 12136,21536 11250,21536 10363,21536 9491,21470 8723,21345 7955,21219 7317,21039 6874,20822 6430,20605 6197,20359 6197,20108 6197,19857 6430,19611 6874,19394 7317,19177 7955,18997 8723,18871 9491,18746 10363,18680 11249,18680 12136,18680 13008,18746 13776,18871 14544,18997 15182,19177 15625,19394 16069,19611 16302,19857 16302,20108 L 16302,20108 Z"/>
       </g>
      </g>
      <g class="com.sun.star.drawing.CustomShape">
       <g id="id6">
        <rect class="BoundingBox" stroke="none" fill="none" x="8934" y="13879" width="9791" height="4761"/>
        <path fill="rgb(49,45,42)" stroke="none" d="M 18724,16259 C 18724,16677 18498,17087 18068,17449 17639,17811 17021,18111 16277,18320 15532,18529 14688,18639 13829,18639 12970,18639 12126,18529 11382,18320 10637,18111 10019,17811 9590,17449 9160,17087 8934,16677 8934,16259 8934,15841 9160,15431 9590,15069 10019,14707 10637,14407 11381,14198 12126,13989 12970,13879 13829,13879 14688,13879 15532,13989 16276,14198 17021,14407 17639,14707 18068,15069 18498,15431 18724,15841 18724,16259 L 18724,16259 Z"/>
       </g>
      </g>
      <g class="com.sun.star.drawing.CustomShape">
       <g id="id7">
        <rect class="BoundingBox" stroke="none" fill="none" x="7547" y="2230" width="9791" height="5052"/>
        <path fill="rgb(128,128,128)" stroke="none" d="M 17337,4755 C 17337,5198 17111,5634 16681,6018 16252,6401 15634,6720 14890,6942 14145,7163 13301,7280 12442,7280 11583,7280 10739,7163 9995,6942 9250,6720 8632,6401 8203,6018 7773,5634 7547,5198 7547,4755 7547,4312 7773,3876 8203,3493 8632,3109 9250,2790 9994,2568 10739,2347 11583,2230 12442,2230 13301,2230 14145,2347 14889,2568 15634,2790 16252,3109 16681,3492 17111,3876 17337,4312 17337,4755 L 17337,4755 Z"/>
       </g>
      </g>
      <g class="com.sun.star.drawing.CustomShape">
       <g id="id8">
        <rect class="BoundingBox" stroke="none" fill="none" x="8041" y="2523" width="9791" height="4254"/>
        <path fill="rgb(49,45,42)" stroke="none" d="M 17831,4650 C 17831,5023 17605,5389 17175,5713 16746,6036 16128,6304 15384,6491 14639,6678 13795,6776 12936,6776 12077,6776 11233,6678 10489,6491 9744,6304 9126,6036 8697,5713 8267,5389 8041,5023 8041,4650 8041,4276 8267,3910 8697,3586 9126,3263 9744,2995 10488,2808 11233,2621 12077,2523 12936,2523 13795,2523 14639,2621 15383,2808 16128,2995 16746,3263 17175,3586 17605,3910 17831,4276 17831,4649 L 17831,4650 Z"/>
       </g>
      </g>
      <g class="com.sun.star.drawing.CustomShape">
       <g id="id9">
        <rect class="BoundingBox" stroke="none" fill="none" x="9310" y="14091" width="8803" height="4254"/>
        <path fill="rgb(73,35,0)" stroke="none" d="M 18112,16218 C 18112,16591 17909,16957 17522,17281 17136,17604 16581,17872 15912,18059 15242,18246 14484,18344 13711,18344 12938,18344 12180,18246 11511,18059 10841,17872 10286,17604 9900,17281 9513,16957 9310,16591 9310,16218 9310,15844 9513,15478 9900,15154 10286,14831 10841,14563 11510,14376 12180,14189 12938,14091 13711,14091 14484,14091 15242,14189 15911,14376 16581,14563 17136,14831 17522,15154 17909,15478 18112,15844 18112,16218 L 18112,16218 Z"/>
       </g>
      </g>
      <g class="com.sun.star.drawing.CustomShape">
       <g id="id10">
        <rect class="BoundingBox" stroke="none" fill="none" x="4012" y="8268" width="6155" height="5051"/>
        <path fill="rgb(58,26,15)" stroke="none" d="M 10166,10793 C 10166,11236 10024,11672 9754,12056 9484,12439 9095,12758 8628,12980 8160,13201 7629,13318 7089,13318 6549,13318 6018,13201 5551,12980 5083,12758 4694,12439 4424,12056 4154,11672 4012,11236 4012,10793 4012,10350 4154,9914 4424,9531 4694,9147 5083,8828 5550,8606 6018,8385 6549,8268 7089,8268 7629,8268 8160,8385 8627,8606 9095,8828 9484,9147 9754,9530 10024,9914 10166,10350 10166,10793 L 10166,10793 Z"/>
       </g>
      </g>
      <g class="com.sun.star.drawing.CustomShape">
       <g id="id11">
        <rect class="BoundingBox" stroke="none" fill="none" x="4322" y="8561" width="5853" height="4255"/>
        <path fill="rgb(49,45,42)" stroke="none" d="M 10174,10688 C 10174,11061 10039,11427 9782,11751 9525,12074 9156,12342 8711,12529 8266,12716 7762,12814 7248,12814 6734,12814 6230,12716 5785,12529 5340,12342 4971,12074 4714,11751 4457,11427 4322,11061 4322,10688 4322,10314 4457,9948 4714,9624 4971,9301 5340,9033 5785,8846 6230,8659 6734,8561 7248,8561 7762,8561 8266,8659 8711,8846 9156,9033 9525,9301 9782,9624 10039,9948 10174,10314 10174,10688 L 10174,10688 Z"/>
       </g>
      </g>
      <g class="com.sun.star.drawing.CustomShape">
       <g id="id12">
        <rect class="BoundingBox" stroke="none" fill="none" x="1462" y="2608" width="2768" height="3084"/>
        <path fill="rgb(73,35,0)" stroke="none" d="M 4163,2654 C 4237,2719 4248,2852 4197,3039 4145,3227 4032,3462 3868,3722 3705,3982 3497,4257 3266,4520 3034,4782 2788,5023 2550,5218 2313,5413 2094,5555 1914,5630 1735,5705 1601,5710 1528,5645 1454,5580 1442,5447 1494,5260 1546,5072 1659,4837 1823,4577 1986,4317 2194,4042 2425,3779 2656,3517 2903,3276 3140,3081 3378,2886 3597,2744 3776,2669 3956,2594 4089,2589 4163,2654 L 4163,2654 Z"/>
       </g>
      </g>
      <g class="com.sun.star.drawing.CustomShape">
       <g id="id13">
        <rect class="BoundingBox" stroke="none" fill="none" x="1399" y="2641" width="2552" height="2832"/>
        <path fill="rgb(75,70,66)" stroke="none" d="M 3878,2691 C 3952,2756 3968,2883 3927,3059 3885,3235 3786,3454 3640,3694 3494,3934 3306,4187 3095,4427 2883,4667 2656,4885 2437,5060 2217,5235 2012,5361 1842,5425 1673,5488 1545,5488 1471,5423 1397,5358 1380,5231 1422,5055 1464,4878 1563,4659 1709,4419 1855,4179 2043,3926 2254,3686 2465,3447 2692,3228 2912,3053 3132,2878 3337,2752 3506,2689 3676,2625 3804,2626 3878,2691 L 3878,2691 Z"/>
       </g>
      </g>
      <g class="com.sun.star.drawing.CustomShape">
       <g id="id14">
        <rect class="BoundingBox" stroke="none" fill="none" x="18594" y="10972" width="2715" height="5042"/>
        <path fill="rgb(49,45,42)" stroke="none" d="M 19353,15995 C 19139,15944 18957,15778 18824,15514 18692,15250 18614,14898 18598,14492 18582,14086 18629,13641 18734,13201 18839,12762 18999,12344 19197,11989 19394,11634 19624,11355 19861,11179 20099,11004 20336,10938 20550,10989 20764,11041 20946,11206 21078,11470 21211,11734 21289,12087 21305,12493 21321,12899 21274,13344 21169,13783 21063,14223 20904,14641 20706,14996 20508,15351 20279,15630 20042,15806 19804,15981 19566,16046 19353,15995 L 19353,15995 Z"/>
       </g>
      </g>
      <g class="com.sun.star.drawing.CustomShape">
       <g id="id15">
        <rect class="BoundingBox" stroke="none" fill="none" x="19011" y="11040" width="2485" height="5034"/>
        <path fill="rgb(73,35,0)" stroke="none" d="M 19654,16059 C 19463,16014 19304,15853 19191,15594 19078,15335 19016,14986 19012,14583 19007,14179 19060,13736 19166,13296 19271,12857 19424,12437 19611,12080 19797,11722 20010,11439 20228,11259 20445,11079 20661,11008 20851,11054 21042,11099 21202,11260 21315,11519 21428,11778 21489,12127 21494,12530 21498,12934 21445,13377 21340,13817 21235,14256 21082,14675 20895,15033 20709,15391 20496,15674 20278,15854 20060,16034 19845,16105 19654,16059 L 19654,16059 Z"/>
       </g>
      </g>
      <g class="com.sun.star.drawing.CustomShape">
       <g id="id16">
        <rect class="BoundingBox" stroke="none" fill="none" x="8577" y="3338" width="6750" height="2524"/>
        <path fill="rgb(34,30,26)" stroke="none" d="M 15326,4600 C 15326,4821 15170,5038 14874,5230 14578,5422 14152,5581 13639,5692 13126,5803 12544,5861 11952,5861 11359,5861 10777,5803 10264,5692 9751,5581 9325,5422 9029,5230 8733,5038 8577,4821 8577,4600 8577,4378 8733,4161 9029,3969 9325,3777 9751,3618 10264,3507 10777,3396 11359,3338 11951,3338 12544,3338 13126,3396 13639,3507 14152,3618 14578,3777 14874,3969 15170,4161 15326,4378 15326,4599 L 15326,4600 Z"/>
       </g>
      </g>
      <g class="com.sun.star.drawing.CustomShape">
       <g id="id17">
        <rect class="BoundingBox" stroke="none" fill="none" x="14383" y="14238" width="3658" height="3971"/>
        <path fill="rgb(73,45,12)" stroke="none" d="M 14384,14238 C 15298,14594 16212,15171 16212,16223 16212,17274 15298,17851 14384,18208 16391,18208 18040,17312 18040,16223 18040,15133 16391,14238 14384,14238 L 14384,14238 Z"/>
       </g>
      </g>
      <g class="com.sun.star.drawing.CustomShape">
       <g id="id18">
        <rect class="BoundingBox" stroke="none" fill="none" x="4306" y="8538" width="3657" height="4211"/>
        <path fill="rgb(102,102,102)" stroke="none" d="M 7962,8538 C 7048,8915 6134,9528 6134,10643 6134,11757 7048,12370 7962,12748 5955,12748 4306,11798 4306,10643 4306,9487 5955,8538 7962,8538 L 7962,8538 Z"/>
       </g>
      </g>
      <g class="com.sun.star.drawing.CustomShape">
       <g id="id19">
        <rect class="BoundingBox" stroke="none" fill="none" x="1446" y="2695" width="2486" height="2759"/>
        <path fill="rgb(0,0,0)" stroke="none" d="M 1536,5453 C 1467,5173 1745,4505 2379,3792 3013,3079 3644,2725 3930,2760 3669,2528 2916,2946 2259,3685 1602,4424 1275,5221 1536,5453 L 1536,5453 Z"/>
       </g>
      </g>
     </g>
    </g>
   </g>
  </g>
 </g>
</svg>